<?xml version="1.0" standalone="no"?>
<!DOCTYPE svg PUBLIC "-//W3C//DTD SVG 20010904//EN"
 "http://www.w3.org/TR/2001/REC-SVG-20010904/DTD/svg10.dtd">
<svg version="1.0" xmlns="http://www.w3.org/2000/svg"
 width="1080.000000pt" height="1080.000000pt" viewBox="0 0 1080.000000 1080.000000"
 preserveAspectRatio="xMidYMid meet">

<g transform="translate(0.000000,1080.000000) scale(0.100000,-0.100000)"
fill="#000000" stroke="none">
<path d="M5931 8933 c0 -43 6 -174 12 -292 l12 -214 42 -12 c98 -29 80 -42
200 136 l108 161 7 -49 c3 -26 7 -84 7 -128 1 -44 4 -110 7 -146 l7 -67 64
-17 c37 -10 68 -14 72 -9 5 5 78 115 164 246 l155 236 -43 11 c-23 6 -49 13
-58 17 -12 4 -44 -37 -130 -166 l-114 -171 -7 47 c-3 26 -6 77 -6 114 0 37 -3
108 -6 158 l-7 92 -41 11 c-23 5 -48 12 -57 15 -11 3 -48 -44 -130 -167 l-114
-171 -6 99 c-4 54 -7 146 -8 204 l-1 106 -58 17 c-32 9 -61 16 -65 16 -4 0 -7
-35 -6 -77z"/>
<path d="M5172 8889 l3 -51 124 -44 c69 -25 126 -46 128 -48 2 -2 -55 -25
-127 -51 l-130 -48 0 -49 c0 -43 2 -49 18 -44 9 4 95 37 189 74 l173 67 0 51
c0 40 -4 53 -17 59 -10 4 -83 31 -163 60 -80 29 -158 58 -173 64 l-28 11 3
-51z"/>
<path d="M4865 8831 l-170 -97 2 -48 c1 -27 5 -52 10 -56 4 -4 87 -24 183 -44
96 -21 183 -39 192 -42 16 -5 17 0 11 43 -3 26 -7 49 -8 51 -1 1 -60 14 -131
28 -71 13 -133 26 -137 27 -5 1 44 32 108 67 65 36 120 71 123 78 2 7 1 30 -4
51 l-9 39 -170 -97z"/>
<path d="M4302 8720 c-18 -11 -41 -34 -51 -52 l-20 -31 -6 26 c-4 15 -9 27
-10 27 -2 0 -28 -9 -57 -21 l-55 -20 69 -192 c38 -106 73 -196 78 -201 11 -11
110 24 110 38 0 6 -16 55 -35 109 -19 54 -35 112 -35 130 0 42 24 75 65 93
l33 14 -16 50 c-9 27 -21 50 -26 50 -6 0 -26 -9 -44 -20z"/>
<path d="M3870 8538 c-64 -11 -130 -56 -164 -111 -82 -133 9 -314 164 -325 85
-6 151 19 217 82 66 64 68 86 11 107 l-42 16 -21 -31 c-11 -17 -42 -42 -69
-55 -46 -23 -51 -24 -89 -10 -22 8 -42 19 -44 24 -2 6 60 42 137 80 90 44 140
75 140 85 0 26 -47 87 -86 111 -46 28 -97 37 -154 27z m64 -102 c19 -8 37 -19
40 -25 4 -6 -29 -29 -83 -56 -50 -25 -93 -45 -96 -45 -12 0 -4 68 11 89 15 20
64 49 87 51 4 0 23 -6 41 -14z"/>
<path d="M6842 8519 c-53 -16 -117 -86 -136 -149 -34 -116 19 -216 149 -276
52 -25 148 -33 160 -14 3 5 1 28 -5 50 -10 38 -12 40 -51 40 -46 0 -72 11
-111 48 -25 23 -48 86 -36 98 3 2 70 -29 149 -71 79 -41 144 -75 145 -75 1 0
11 22 23 49 38 89 23 169 -43 235 -65 66 -157 90 -244 65z m171 -129 c19 -21
27 -41 27 -66 0 -20 -4 -34 -9 -32 -32 12 -181 94 -181 100 0 4 12 14 28 23
42 24 101 13 135 -25z"/>
<path d="M7235 8225 c-97 -130 -173 -240 -171 -244 3 -4 24 -21 47 -36 39 -27
42 -28 54 -12 12 17 14 15 25 -17 6 -20 31 -53 56 -75 84 -74 190 -76 274 -3
47 39 90 120 90 167 0 104 -78 199 -175 213 l-44 7 59 79 c33 43 58 82 56 85
-3 4 -25 21 -50 39 l-46 33 -175 -236z m205 -114 c61 -44 61 -118 0 -176 -25
-24 -40 -30 -76 -30 -39 0 -50 5 -75 33 -35 39 -39 91 -9 140 37 60 104 74
160 33z"/>
<path d="M3420 8275 c-141 -44 -209 -205 -137 -328 40 -68 93 -100 173 -105
54 -4 73 0 117 21 65 32 124 92 142 143 15 44 12 48 -45 58 -33 5 -36 3 -55
-31 -27 -51 -78 -83 -130 -83 -83 0 -73 18 66 118 144 104 142 100 70 165 -38
34 -94 58 -136 56 -11 0 -40 -7 -65 -14z m109 -110 c13 -13 -3 -28 -125 -113
-35 -24 -44 -17 -44 33 0 30 53 92 83 98 30 5 69 -3 86 -18z"/>
<path d="M3020 7955 c-19 -9 -45 -26 -58 -38 -29 -27 -62 -89 -62 -117 0 -23
-10 -26 -28 -8 -10 10 -21 3 -55 -30 l-42 -42 152 -152 153 -153 45 45 45 44
-84 86 c-90 92 -106 114 -106 155 0 55 62 105 112 90 13 -4 66 -50 119 -101
l95 -94 44 45 44 45 -89 90 c-50 50 -107 102 -127 117 -46 32 -110 39 -158 18z"/>
<path d="M7835 7709 c-115 -93 -210 -176 -209 -183 2 -17 165 -217 206 -252
146 -123 354 -73 436 105 31 67 27 153 -9 225 -22 43 -198 275 -209 275 -3 0
-99 -76 -215 -170z m263 -55 c24 -30 50 -71 59 -91 56 -136 -99 -281 -233
-217 -29 14 -78 64 -132 135 -11 14 5 31 119 123 72 58 134 106 137 105 4 0
26 -25 50 -55z"/>
<path d="M2505 7694 c-45 -48 -20 -124 39 -124 38 0 79 41 79 78 0 69 -72 96
-118 46z"/>
<path d="M2654 7565 c-32 -39 -35 -48 -23 -59 8 -8 83 -68 167 -134 l154 -121
26 32 c14 18 32 39 39 48 12 15 -4 31 -144 141 -87 68 -163 128 -170 131 -7 4
-27 -11 -49 -38z"/>
<path d="M2500 7363 c-30 -48 -30 -48 -9 -62 19 -14 19 -15 -23 -36 -64 -32
-108 -109 -108 -190 0 -83 36 -141 111 -179 93 -46 182 -27 251 53 38 44 63
119 52 153 -6 21 -6 21 24 0 46 -33 58 -73 38 -126 -16 -42 -103 -136 -126
-136 -11 0 23 -75 40 -85 13 -8 88 46 122 89 99 123 111 236 36 322 -22 25
-270 186 -370 241 -4 2 -21 -18 -38 -44z m141 -166 c69 -46 59 -145 -19 -190
-29 -17 -39 -18 -71 -8 -54 16 -76 44 -76 96 0 48 26 92 66 112 35 19 62 16
100 -10z"/>
<path d="M8175 7191 c-47 -22 -99 -74 -114 -114 -40 -104 22 -267 119 -317 22
-11 41 -20 44 -20 2 0 11 20 19 45 l16 44 -34 21 c-64 40 -95 153 -51 189 17
15 18 13 102 -141 l68 -126 36 18 c71 36 110 102 110 183 0 65 -18 113 -62
163 -62 71 -169 94 -253 55z m164 -105 c50 -26 68 -112 33 -156 l-19 -23 -46
85 c-26 48 -47 91 -47 97 0 16 46 14 79 -3z"/>
<path d="M2250 6838 c-35 -18 -51 -35 -73 -78 -24 -47 -28 -63 -24 -112 5 -54
4 -57 -14 -48 -16 9 -21 5 -34 -27 -34 -81 -46 -70 171 -156 108 -43 197 -76
198 -75 7 10 46 111 44 113 -2 1 -41 17 -88 35 -47 18 -102 42 -123 52 -64 32
-81 108 -36 157 35 38 60 36 193 -17 l127 -50 15 36 c33 78 32 78 -104 133
-156 62 -192 68 -252 37z"/>
<path d="M8416 6694 c-184 -172 -177 -161 -142 -246 13 -31 22 -38 44 -38 15
0 117 -5 226 -10 109 -6 201 -8 203 -6 3 2 -4 27 -13 54 -21 59 -29 62 -189
62 -161 0 -160 -4 -29 117 l113 104 -18 47 c-10 26 -20 53 -22 60 -3 8 -71
-49 -173 -144z"/>
<path d="M1906 6383 c-22 -72 -85 -388 -79 -393 10 -8 533 -124 537 -119 1 2
23 96 48 209 31 141 41 207 34 211 -6 4 -29 10 -51 13 l-40 7 -29 -135 c-16
-74 -32 -140 -36 -146 -11 -18 -120 6 -120 26 0 8 11 65 25 126 14 61 25 112
25 114 0 3 -94 23 -97 20 -1 -1 -14 -57 -29 -124 -19 -85 -31 -122 -41 -122
-27 0 -103 22 -103 30 0 4 14 67 30 140 17 73 30 133 30 135 0 3 -84 25 -94
25 -2 0 -7 -8 -10 -17z"/>
<path d="M8655 6071 l-30 -6 -43 -193 c-24 -107 -42 -196 -39 -199 3 -2 25 -1
49 4 l43 9 26 120 c14 67 28 127 31 135 2 7 26 -27 53 -76 76 -142 86 -157
102 -151 8 3 28 6 44 6 16 0 29 4 29 9 0 5 -42 84 -94 177 -101 181 -101 181
-171 165z"/>
<path d="M2204 5534 l-117 -95 -66 63 c-36 35 -78 74 -93 88 l-28 23 0 -71 0
-71 86 -90 86 -91 -53 0 c-30 0 -105 -3 -166 -7 l-113 -6 0 -59 0 -58 284 0
c156 0 291 3 300 6 12 5 16 21 16 65 l0 59 -58 0 c-52 0 -62 3 -87 30 -16 16
-27 31 -24 33 2 2 39 32 82 66 l77 64 0 73 c0 41 -2 74 -4 74 -2 0 -57 -43
-122 -96z"/>
<path d="M8548 5595 c-3 -3 27 -90 66 -193 l72 -187 52 -3 c29 -2 52 -1 52 1
0 2 32 86 70 188 39 101 70 187 70 192 0 4 -21 7 -47 5 l-48 -3 -45 -122 c-25
-67 -48 -124 -51 -128 -3 -3 -19 29 -34 72 -69 196 -61 183 -109 183 -23 0
-45 -2 -48 -5z"/>
<path d="M2218 5061 c-15 -48 -15 -49 8 -61 25 -14 54 -66 54 -98 0 -35 -43
-86 -85 -100 -108 -36 -194 69 -136 165 l20 31 -31 42 -31 41 -25 -23 c-36
-34 -52 -79 -52 -152 0 -82 37 -157 99 -201 39 -27 50 -30 121 -30 71 0 82 3
122 30 28 20 53 49 71 85 25 48 28 63 24 120 -5 75 -32 135 -77 174 -47 39
-64 34 -82 -23z"/>
<path d="M8430 4898 c-6 -24 -13 -50 -16 -59 -4 -13 23 -23 146 -55 82 -21
150 -41 150 -44 0 -3 -62 -24 -137 -46 -122 -36 -140 -44 -152 -69 -13 -27
-12 -28 100 -141 63 -63 109 -114 104 -114 -6 0 -78 18 -162 39 l-151 38 -15
-58 c-8 -33 -14 -59 -13 -59 0 0 121 -31 269 -69 147 -38 269 -66 271 -63 2 4
9 27 16 51 l12 44 -143 143 c-98 98 -138 145 -128 149 8 3 95 29 194 58 l180
53 13 48 c11 37 11 50 2 56 -6 4 -120 35 -253 69 -133 34 -250 64 -259 67 -13
4 -19 -5 -28 -38z"/>
<path d="M2275 4620 c-151 -50 -181 -68 -207 -126 -16 -37 -19 -57 -13 -100 7
-61 53 -159 90 -194 l25 -24 35 34 35 34 -24 25 c-31 32 -56 91 -56 129 0 25
34 72 52 72 3 0 15 -31 27 -68 25 -82 55 -129 99 -155 42 -24 91 -16 134 22
54 48 50 162 -9 231 -14 17 -32 30 -41 31 -12 0 -10 4 6 12 18 8 23 17 19 36
-10 47 -26 81 -39 80 -7 0 -67 -18 -133 -39z m108 -138 c9 -10 22 -33 28 -50
21 -61 -35 -107 -75 -63 -20 22 -48 109 -40 122 10 16 70 10 87 -9z"/>
<path d="M2504 4229 l-32 -31 20 -34 c28 -47 13 -66 -89 -114 -47 -22 -87 -40
-89 -40 -2 0 -12 20 -23 45 -22 49 -31 52 -78 27 l-32 -17 19 -44 c11 -24 20
-47 20 -51 0 -4 -20 -15 -45 -24 -25 -10 -45 -19 -45 -22 0 -2 12 -28 26 -58
l27 -54 45 20 c43 20 46 20 58 3 7 -10 15 -23 17 -29 2 -7 18 -4 46 8 31 14
40 24 35 35 -18 45 -16 47 68 86 46 21 97 49 115 62 66 48 66 152 -1 228 l-31
36 -31 -32z"/>
<path d="M8260 4198 c-83 -43 -150 -169 -134 -255 21 -116 104 -187 219 -187
68 0 104 15 154 66 79 79 100 203 48 291 -58 98 -186 136 -287 85z m151 -121
c65 -44 75 -118 24 -170 -86 -85 -246 25 -191 131 33 65 104 81 167 39z"/>
<path d="M2552 3889 c-77 -39 -91 -114 -47 -253 33 -104 33 -144 1 -152 -40
-10 -58 -1 -93 44 -21 28 -37 64 -45 103 l-12 61 -45 -6 c-25 -3 -49 -10 -53
-14 -11 -11 15 -109 41 -161 33 -64 108 -134 158 -149 57 -17 116 -1 160 43
46 46 48 98 7 225 -32 100 -31 137 1 152 57 26 127 -69 150 -204 5 -33 9 -38
33 -38 15 0 38 3 51 7 22 6 23 9 18 60 -11 110 -99 247 -182 284 -53 24 -91
24 -143 -2z"/>
<path d="M8000 3784 c-30 -43 -32 -48 -17 -59 22 -16 21 -25 -3 -25 -44 0
-118 -91 -134 -166 -23 -107 82 -233 208 -250 104 -15 211 68 225 176 l6 48
82 -59 82 -58 36 50 c20 28 35 52 33 54 -6 6 -479 335 -482 335 -1 0 -18 -21
-36 -46z m141 -177 c18 -12 39 -39 47 -59 13 -33 12 -41 -4 -75 -26 -52 -80
-79 -128 -63 -50 16 -96 72 -96 116 0 28 8 44 34 70 42 42 95 46 147 11z"/>
<path d="M2771 3411 l-34 -28 72 -87 72 -86 35 26 c19 15 34 33 32 39 -4 17
-126 165 -136 165 -4 0 -22 -13 -41 -29z"/>
<path d="M7686 3369 c-21 -22 -36 -44 -34 -49 2 -5 72 -70 157 -146 l153 -137
44 45 45 44 -160 142 c-88 78 -162 142 -164 142 -3 0 -21 -18 -41 -41z"/>
<path d="M2931 3118 l-211 -203 44 -44 45 -45 199 192 c110 106 205 199 212
207 11 14 7 22 -25 55 -22 22 -42 40 -46 40 -3 0 -101 -91 -218 -202z"/>
<path d="M7532 3207 l-44 -45 209 -212 208 -212 43 44 42 44 -207 213 -208
213 -43 -45z"/>
<path d="M3105 2948 l-199 -221 45 -38 c24 -21 46 -39 49 -39 10 0 385 423
385 434 0 6 -18 28 -41 48 l-40 37 -199 -221z"/>
<path d="M8057 3042 c-33 -34 -34 -71 -4 -100 32 -30 63 -28 98 7 34 35 36 59
8 95 -28 35 -67 34 -102 -2z"/>
<path d="M7365 3031 c-74 -19 -154 -80 -186 -142 -28 -56 -25 -75 12 -83 55
-11 69 -8 69 15 0 30 59 85 106 99 34 10 46 10 69 -2 l27 -15 -113 -88 c-157
-121 -145 -108 -120 -144 35 -49 101 -83 163 -83 164 -1 283 165 222 310 -17
42 -67 97 -104 117 -33 17 -108 26 -145 16z m153 -231 c4 -42 -14 -78 -50 -96
-36 -18 -92 -18 -108 1 -10 13 -8 19 16 38 16 12 49 39 74 59 25 20 50 35 55
34 6 -1 11 -18 13 -36z"/>
<path d="M3338 2858 c-63 -90 -118 -168 -121 -175 -7 -11 70 -73 90 -73 5 0
38 41 73 91 35 50 75 99 88 110 37 29 88 25 123 -10 49 -49 44 -64 -83 -241
l-47 -66 49 -33 c27 -18 52 -31 57 -28 5 3 43 55 85 114 81 116 104 171 94
225 -13 72 -107 147 -184 148 -29 0 -32 2 -22 19 8 16 3 24 -32 50 -23 17 -45
31 -49 31 -4 0 -58 -73 -121 -162z"/>
<path d="M6722 2643 c-159 -73 -209 -113 -248 -196 -39 -85 -31 -171 25 -259
61 -95 168 -141 279 -119 52 10 308 116 317 131 5 9 -215 510 -224 509 -3 0
-70 -30 -149 -66z m152 -247 c37 -82 66 -150 66 -152 0 -1 -33 -16 -74 -33
-132 -55 -215 -36 -264 59 -30 58 -27 131 8 180 24 34 178 116 192 102 4 -4
36 -74 72 -156z"/>
<path d="M4060 2531 l-43 -89 -109 54 c-59 30 -112 54 -118 54 -9 0 -55 -79
-48 -85 2 -1 53 -28 115 -59 l112 -56 -26 -57 c-14 -32 -29 -62 -33 -66 -3 -4
-63 20 -131 53 -68 33 -127 60 -131 60 -7 0 -48 -73 -48 -85 0 -5 365 -185
375 -185 4 0 245 490 245 496 0 5 -98 54 -108 54 -4 0 -28 -40 -52 -89z"/>
<path d="M6079 2425 c-42 -14 -119 -74 -119 -95 0 -5 17 -21 37 -34 l37 -26
26 25 c47 45 117 58 169 30 62 -32 49 -41 -115 -81 -172 -43 -171 -42 -135
-119 38 -84 123 -132 216 -122 169 17 261 178 186 325 -51 100 -169 137 -302
97z m207 -247 c-9 -48 -48 -78 -100 -78 -45 0 -100 32 -93 53 3 10 148 53 186
56 10 1 12 -7 7 -31z"/>
<path d="M5653 2353 c-32 -4 -33 -5 -78 -151 -25 -81 -57 -180 -70 -219 l-24
-73 59 0 58 0 41 133 c23 72 45 141 50 151 6 16 22 -8 80 -117 l72 -137 37 1
c20 1 49 4 63 8 l26 6 -107 200 c-107 197 -108 200 -141 201 -19 1 -48 -1 -66
-3z"/>
<path d="M4607 2275 c-93 -13 -170 -25 -171 -27 -2 -1 -8 -23 -14 -48 -9 -34
-8 -48 1 -56 7 -6 82 -59 168 -117 l157 -106 11 46 c7 25 8 49 4 53 -4 4 -57
41 -118 81 l-110 74 139 15 c150 16 143 12 160 83 6 25 4 27 -26 26 -18 -1
-109 -12 -201 -24z"/>
<path d="M4908 2254 c-1 -19 -2 -41 -2 -49 -1 -11 41 -36 123 -75 70 -33 118
-62 110 -65 -8 -2 -64 -18 -126 -34 -62 -16 -117 -32 -122 -36 -9 -5 -17 -96
-8 -95 1 0 88 24 192 53 l190 53 6 50 c4 27 4 52 0 56 -3 3 -86 45 -183 91
l-178 86 -2 -35z"/>
</g>
</svg>
